<svg width="106" height="28" viewBox="0 0 106 28" fill="none" xmlns="http://www.w3.org/2000/svg">
<path d="M5.2843 5.0524H6.47879C6.44057 5.50789 6.31315 5.91402 6.09655 6.27077C5.87995 6.62434 5.57576 6.90305 5.18397 7.10691C4.79217 7.31077 4.31597 7.4127 3.75536 7.4127C3.32534 7.4127 2.93833 7.33625 2.59432 7.18336C2.25031 7.02728 1.95567 6.80749 1.7104 6.524C1.46513 6.23733 1.2772 5.89172 1.1466 5.48719C1.01919 5.08266 0.955483 4.63034 0.955483 4.13025V3.55212C0.955483 3.05203 1.02078 2.59972 1.15138 2.19518C1.28516 1.79065 1.47628 1.44505 1.72473 1.15837C1.97319 0.868506 2.27101 0.647128 2.61821 0.494234C2.96859 0.34134 3.36198 0.264893 3.79836 0.264893C4.3526 0.264893 4.82084 0.366822 5.20308 0.570681C5.58531 0.77454 5.88155 1.05644 6.09178 1.41638C6.30519 1.77632 6.43579 2.18881 6.48357 2.65387H5.28908C5.25723 2.35445 5.18715 2.09803 5.07885 1.88462C4.97374 1.6712 4.81766 1.50875 4.61061 1.39727C4.40357 1.2826 4.13282 1.22526 3.79836 1.22526C3.52443 1.22526 3.28553 1.27622 3.08167 1.37815C2.87781 1.48008 2.7074 1.62979 2.57043 1.82728C2.43346 2.02477 2.32994 2.26845 2.25986 2.55831C2.19297 2.84498 2.15953 3.17307 2.15953 3.54256V4.13025C2.15953 4.48063 2.18979 4.79916 2.25031 5.08584C2.31401 5.36933 2.40957 5.61301 2.53698 5.81687C2.66758 6.02073 2.83322 6.1784 3.03389 6.28988C3.23456 6.40137 3.47505 6.45711 3.75536 6.45711C4.09619 6.45711 4.37171 6.40296 4.58194 6.29466C4.79536 6.18636 4.95622 6.02869 5.06452 5.82164C5.176 5.61141 5.24926 5.355 5.2843 5.0524Z" fill="black"/>
<path d="M12.1645 3.26544V4.21625H8.47119V3.26544H12.1645ZM8.76743 0.360452V7.31714H7.56816V0.360452H8.76743ZM13.0867 0.360452V7.31714H11.8922V0.360452H13.0867Z" fill="black"/>
<path d="M19.0687 6.36633V7.31714H15.3753V6.36633H19.0687ZM15.7146 0.360452V7.31714H14.5153V0.360452H15.7146ZM18.5861 3.26544V4.20192H15.3753V3.26544H18.5861ZM19.0448 0.360452V1.31604H15.3753V0.360452H19.0448Z" fill="black"/>
<path d="M24.4056 6.36633V7.31714H20.913V6.36633H24.4056ZM21.2474 0.360452V7.31714H20.0482V0.360452H21.2474Z" fill="black"/>
<path d="M28.9925 5.52541C28.9925 5.38207 28.9702 5.25466 28.9256 5.14318C28.8842 5.03169 28.8093 4.92976 28.701 4.83739C28.5927 4.74501 28.4398 4.65583 28.2423 4.56982C28.048 4.48063 27.7996 4.38985 27.497 4.29748C27.1657 4.19555 26.8599 4.08247 26.5796 3.95825C26.3025 3.83083 26.0604 3.68431 25.8534 3.51867C25.6463 3.34985 25.4855 3.15714 25.3708 2.94054C25.2561 2.72076 25.1988 2.46753 25.1988 2.18085C25.1988 1.89736 25.2577 1.63935 25.3756 1.40682C25.4966 1.1743 25.667 0.973621 25.8868 0.804801C26.1098 0.632794 26.3726 0.500605 26.6752 0.408231C26.9778 0.312672 27.3122 0.264893 27.6785 0.264893C28.1946 0.264893 28.6389 0.360452 29.0116 0.551569C29.3874 0.742687 29.6757 0.999104 29.8764 1.32082C30.0803 1.64253 30.1822 1.99769 30.1822 2.3863H28.9925C28.9925 2.15696 28.9431 1.95469 28.8444 1.7795C28.7488 1.60113 28.6023 1.46097 28.4048 1.35904C28.2105 1.25711 27.9636 1.20615 27.6642 1.20615C27.3807 1.20615 27.145 1.24915 26.9571 1.33515C26.7691 1.42116 26.629 1.53742 26.5366 1.68394C26.4442 1.83047 26.398 1.9961 26.398 2.18085C26.398 2.31145 26.4283 2.4309 26.4888 2.5392C26.5493 2.64431 26.6417 2.74305 26.7659 2.83543C26.8902 2.92462 27.0463 3.00903 27.2342 3.08866C27.4221 3.16829 27.6435 3.24474 27.8983 3.318C28.2837 3.43267 28.6198 3.56008 28.9065 3.70024C29.1931 3.8372 29.432 3.99328 29.6232 4.16848C29.8143 4.34367 29.9576 4.54275 30.0532 4.76572C30.1487 4.9855 30.1965 5.23555 30.1965 5.51586C30.1965 5.8089 30.1376 6.07328 30.0197 6.309C29.9019 6.54152 29.7331 6.7406 29.5133 6.90624C29.2967 7.06869 29.0355 7.19451 28.7297 7.2837C28.4271 7.3697 28.0894 7.4127 27.7168 7.4127C27.3823 7.4127 27.0526 7.36811 26.7277 7.27892C26.406 7.18973 26.113 7.05435 25.8486 6.87279C25.5842 6.68805 25.374 6.4587 25.2179 6.18477C25.0618 5.90765 24.9838 5.58434 24.9838 5.21485H26.183C26.183 5.441 26.2213 5.63371 26.2977 5.79298C26.3773 5.95224 26.4872 6.08284 26.6274 6.18477C26.7675 6.28351 26.93 6.35677 27.1147 6.40455C27.3027 6.45233 27.5033 6.47622 27.7168 6.47622C27.9971 6.47622 28.2312 6.43641 28.4191 6.35677C28.6102 6.27714 28.7536 6.16566 28.8491 6.02232C28.9447 5.87898 28.9925 5.71334 28.9925 5.52541Z" fill="black"/>
<path d="M35.8106 6.36633V7.31714H32.1172V6.36633H35.8106ZM32.4565 0.360452V7.31714H31.2572V0.360452H32.4565ZM35.328 3.26544V4.20192H32.1172V3.26544H35.328ZM35.7867 0.360452V1.31604H32.1172V0.360452H35.7867Z" fill="black"/>
<path d="M39.4992 1.28737L37.4208 7.31714H36.1642L38.7825 0.360452H39.5852L39.4992 1.28737ZM41.2383 7.31714L39.1552 1.28737L39.0644 0.360452H39.8719L42.4997 7.31714H41.2383ZM41.138 4.73705V5.68786H37.3539V4.73705H41.138Z" fill="black"/>
<path d="M50.0728 6.36633V7.31714H46.5801V6.36633H50.0728ZM46.9146 0.360452V7.31714H45.7153V0.360452H46.9146Z" fill="black"/>
<path d="M52.2802 0.360452V7.31714H51.0809V0.360452H52.2802Z" fill="black"/>
<path d="M59.1126 3.76235V6.41889C59.0139 6.54949 58.8594 6.69282 58.6492 6.8489C58.4421 7.0018 58.1666 7.13399 57.8226 7.24547C57.4786 7.35696 57.0502 7.4127 56.5373 7.4127C56.1009 7.4127 55.7012 7.33944 55.3381 7.19292C54.9749 7.04321 54.6612 6.82501 54.3968 6.53834C54.1356 6.25166 53.9334 5.90287 53.79 5.49197C53.6467 5.07788 53.575 4.60645 53.575 4.07769V3.59512C53.575 3.06955 53.6403 2.60131 53.7709 2.19041C53.9047 1.77632 54.0958 1.42593 54.3443 1.13926C54.5927 0.85258 54.8921 0.63598 55.2425 0.489456C55.5961 0.339747 55.9958 0.264893 56.4418 0.264893C57.0119 0.264893 57.4834 0.360452 57.856 0.551569C58.2319 0.739502 58.5218 1.0007 58.7256 1.33515C58.9295 1.66961 59.0585 2.05184 59.1126 2.48186H57.9373C57.899 2.23978 57.8242 2.02318 57.7127 1.83206C57.6044 1.64094 57.4483 1.49123 57.2445 1.38293C57.0438 1.27145 56.7826 1.2157 56.4609 1.2157C56.1838 1.2157 55.9401 1.26826 55.7299 1.37338C55.5196 1.47849 55.3444 1.63298 55.2043 1.83684C55.0673 2.0407 54.9638 2.28915 54.8937 2.5822C54.8236 2.87524 54.7886 3.2097 54.7886 3.58557V4.07769C54.7886 4.45993 54.8284 4.79916 54.9081 5.0954C54.9909 5.39163 55.1087 5.64168 55.2616 5.84553C55.4177 6.04939 55.6072 6.20388 55.8302 6.309C56.0532 6.41092 56.3048 6.46189 56.5851 6.46189C56.859 6.46189 57.0836 6.43959 57.2588 6.395C57.434 6.34722 57.5726 6.29148 57.6745 6.22777C57.7796 6.16088 57.8608 6.09717 57.9182 6.03665V4.65583H56.4704V3.76235H59.1126Z" fill="black"/>
<path d="M65.0373 3.26544V4.21625H61.3439V3.26544H65.0373ZM61.6402 0.360452V7.31714H60.4409V0.360452H61.6402ZM65.9594 0.360452V7.31714H64.765V0.360452H65.9594Z" fill="black"/>
<path d="M70.1067 0.360452V7.31714H68.917V0.360452H70.1067ZM72.2902 0.360452V1.31604H66.7526V0.360452H72.2902Z" fill="black"/>
<path d="M74.4881 0.360452V7.31714H73.2888V0.360452H74.4881Z" fill="black"/>
<path d="M81.4973 0.360452V7.31714H80.2981L77.1781 2.33374V7.31714H75.9788V0.360452H77.1781L80.3076 5.35341V0.360452H81.4973Z" fill="black"/>
<path d="M88.2677 3.76235V6.41889C88.1689 6.54949 88.0144 6.69282 87.8042 6.8489C87.5972 7.0018 87.3216 7.13399 86.9776 7.24547C86.6336 7.35696 86.2052 7.4127 85.6924 7.4127C85.256 7.4127 84.8562 7.33944 84.4931 7.19292C84.13 7.04321 83.8162 6.82501 83.5518 6.53834C83.2906 6.25166 83.0884 5.90287 82.945 5.49197C82.8017 5.07788 82.73 4.60645 82.73 4.07769V3.59512C82.73 3.06955 82.7953 2.60131 82.9259 2.19041C83.0597 1.77632 83.2508 1.42593 83.4993 1.13926C83.7477 0.85258 84.0472 0.63598 84.3975 0.489456C84.7511 0.339747 85.1509 0.264893 85.5968 0.264893C86.167 0.264893 86.6384 0.360452 87.0111 0.551569C87.3869 0.739502 87.6768 1.0007 87.8807 1.33515C88.0845 1.66961 88.2135 2.05184 88.2677 2.48186H87.0923C87.0541 2.23978 86.9792 2.02318 86.8677 1.83206C86.7594 1.64094 86.6034 1.49123 86.3995 1.38293C86.1988 1.27145 85.9376 1.2157 85.6159 1.2157C85.3388 1.2157 85.0951 1.26826 84.8849 1.37338C84.6747 1.47849 84.4995 1.63298 84.3593 1.83684C84.2224 2.0407 84.1188 2.28915 84.0488 2.5822C83.9787 2.87524 83.9436 3.2097 83.9436 3.58557V4.07769C83.9436 4.45993 83.9835 4.79916 84.0631 5.0954C84.1459 5.39163 84.2638 5.64168 84.4166 5.84553C84.5727 6.04939 84.7623 6.20388 84.9852 6.309C85.2082 6.41092 85.4598 6.46189 85.7401 6.46189C86.0141 6.46189 86.2386 6.43959 86.4138 6.395C86.589 6.34722 86.7276 6.29148 86.8295 6.22777C86.9346 6.16088 87.0159 6.09717 87.0732 6.03665V4.65583H85.6255V3.76235H88.2677Z" fill="black"/>
<path d="M2.79021 12.0314V16.6947H2.20093V12.7672L1.01282 13.2004V12.6684L2.69784 12.0314H2.79021Z" fill="black"/>
<path d="M7.65735 15.1339V15.618H4.30642V15.2708L6.38323 12.0569H6.86421L6.34819 12.987L4.97533 15.1339H7.65735ZM7.01073 12.0569V16.6947H6.42145V12.0569H7.01073Z" fill="black"/>
<path d="M11.674 14.8759H10.4349V14.3758H11.674C11.914 14.3758 12.1083 14.3375 12.2569 14.2611C12.4056 14.1846 12.5139 14.0785 12.5818 13.9426C12.6519 13.8067 12.6869 13.6516 12.6869 13.4775C12.6869 13.3182 12.6519 13.1685 12.5818 13.0284C12.5139 12.8882 12.4056 12.7757 12.2569 12.6907C12.1083 12.6037 11.914 12.5601 11.674 12.5601H10.5783V16.6947H9.9635V12.0569H11.674C12.0244 12.0569 12.3206 12.1174 12.5627 12.2384C12.8048 12.3595 12.9885 12.5272 13.1138 12.7417C13.2391 12.9541 13.3017 13.1972 13.3017 13.4711C13.3017 13.7684 13.2391 14.0222 13.1138 14.2324C12.9885 14.4427 12.8048 14.603 12.5627 14.7134C12.3206 14.8217 12.0244 14.8759 11.674 14.8759Z" fill="black"/>
<path d="M15.3753 16.7584C15.1354 16.7584 14.9177 16.718 14.7223 16.6373C14.5291 16.5545 14.3624 16.4388 14.2222 16.2901C14.0842 16.1415 13.978 15.9652 13.9037 15.7614C13.8294 15.5575 13.7922 15.3345 13.7922 15.0925V14.9587C13.7922 14.6784 13.8336 14.4289 13.9165 14.2101C13.9993 13.9893 14.1118 13.8024 14.2541 13.6495C14.3964 13.4966 14.5578 13.3809 14.7383 13.3023C14.9188 13.2237 15.1056 13.1845 15.2989 13.1845C15.5452 13.1845 15.7576 13.2269 15.9359 13.3119C16.1164 13.3968 16.264 13.5157 16.3787 13.6686C16.4934 13.8194 16.5783 13.9978 16.6335 14.2038C16.6887 14.4076 16.7163 14.6306 16.7163 14.8727V15.137H14.1426V14.6561H16.1271V14.6115C16.1186 14.4586 16.0867 14.3099 16.0315 14.1655C15.9784 14.0211 15.8935 13.9022 15.7767 13.8088C15.6599 13.7153 15.5006 13.6686 15.2989 13.6686C15.1651 13.6686 15.0419 13.6973 14.9294 13.7546C14.8168 13.8098 14.7202 13.8927 14.6395 14.0031C14.5588 14.1135 14.4962 14.2484 14.4516 14.4076C14.407 14.5669 14.3847 14.7506 14.3847 14.9587V15.0925C14.3847 15.256 14.407 15.4099 14.4516 15.5543C14.4983 15.6966 14.5652 15.8219 14.6523 15.9302C14.7415 16.0385 14.8487 16.1234 14.974 16.185C15.1014 16.2466 15.2458 16.2774 15.4072 16.2774C15.6153 16.2774 15.7915 16.2349 15.9359 16.15C16.0803 16.065 16.2067 15.9514 16.315 15.8091L16.6717 16.0926C16.5974 16.2052 16.5029 16.3124 16.3882 16.4144C16.2736 16.5163 16.1324 16.5991 15.9646 16.6628C15.799 16.7265 15.6025 16.7584 15.3753 16.7584Z" fill="black"/>
<path d="M17.9936 13.984V16.6947H17.4044V13.2482H17.9618L17.9936 13.984ZM17.8535 14.8408L17.6082 14.8313C17.6103 14.5955 17.6454 14.3779 17.7133 14.1783C17.7813 13.9765 17.8768 13.8013 18 13.6527C18.1232 13.5041 18.2697 13.3894 18.4396 13.3087C18.6116 13.2259 18.8016 13.1845 19.0098 13.1845C19.1796 13.1845 19.3325 13.2078 19.4684 13.2545C19.6043 13.2991 19.7201 13.3713 19.8156 13.4711C19.9133 13.5709 19.9876 13.7005 20.0386 13.8597C20.0896 14.0169 20.115 14.2091 20.115 14.4363V16.6947H19.5226V14.4299C19.5226 14.2494 19.496 14.105 19.4429 13.9967C19.3899 13.8863 19.3124 13.8067 19.2104 13.7578C19.1085 13.7068 18.9832 13.6814 18.8346 13.6814C18.688 13.6814 18.5543 13.7122 18.4332 13.7737C18.3143 13.8353 18.2113 13.9203 18.1242 14.0286C18.0393 14.1369 17.9724 14.2611 17.9236 14.4012C17.8768 14.5393 17.8535 14.6858 17.8535 14.8408Z" fill="black"/>
<path d="M21.5994 13.984V16.6947H21.0101V13.2482H21.5675L21.5994 13.984ZM21.4592 14.8408L21.214 14.8313C21.2161 14.5955 21.2511 14.3779 21.3191 14.1783C21.387 13.9765 21.4826 13.8013 21.6058 13.6527C21.7289 13.5041 21.8755 13.3894 22.0453 13.3087C22.2173 13.2259 22.4074 13.1845 22.6155 13.1845C22.7854 13.1845 22.9383 13.2078 23.0742 13.2545C23.2101 13.2991 23.3258 13.3713 23.4214 13.4711C23.5191 13.5709 23.5934 13.7005 23.6444 13.8597C23.6953 14.0169 23.7208 14.2091 23.7208 14.4363V16.6947H23.1283V14.4299C23.1283 14.2494 23.1018 14.105 23.0487 13.9967C22.9956 13.8863 22.9181 13.8067 22.8162 13.7578C22.7143 13.7068 22.589 13.6814 22.4403 13.6814C22.2938 13.6814 22.16 13.7122 22.039 13.7737C21.92 13.8353 21.8171 13.9203 21.73 14.0286C21.6451 14.1369 21.5782 14.2611 21.5293 14.4012C21.4826 14.5393 21.4592 14.6858 21.4592 14.8408Z" fill="black"/>
<path d="M28.0337 14.8759H26.7946V14.3758H28.0337C28.2737 14.3758 28.468 14.3375 28.6166 14.2611C28.7653 14.1846 28.8736 14.0785 28.9415 13.9426C29.0116 13.8067 29.0466 13.6516 29.0466 13.4775C29.0466 13.3182 29.0116 13.1685 28.9415 13.0284C28.8736 12.8882 28.7653 12.7757 28.6166 12.6907C28.468 12.6037 28.2737 12.5601 28.0337 12.5601H26.938V16.6947H26.3232V12.0569H28.0337C28.3841 12.0569 28.6803 12.1174 28.9224 12.2384C29.1645 12.3595 29.3482 12.5272 29.4735 12.7417C29.5987 12.9541 29.6614 13.1972 29.6614 13.4711C29.6614 13.7684 29.5987 14.0222 29.4735 14.2324C29.3482 14.4427 29.1645 14.603 28.9224 14.7134C28.6803 14.8217 28.3841 14.8759 28.0337 14.8759Z" fill="black"/>
<path d="M30.9897 11.802V16.6947H30.3972V11.802H30.9897Z" fill="black"/>
<path d="M33.9679 16.1054V14.3312C33.9679 14.1953 33.9403 14.0774 33.8851 13.9776C33.832 13.8757 33.7513 13.7971 33.643 13.7419C33.5347 13.6867 33.4009 13.6591 33.2417 13.6591C33.093 13.6591 32.9624 13.6846 32.8499 13.7355C32.7394 13.7865 32.6524 13.8534 32.5887 13.9362C32.5271 14.019 32.4963 14.1082 32.4963 14.2038H31.907C31.907 14.0806 31.9389 13.9585 32.0026 13.8374C32.0663 13.7164 32.1576 13.607 32.2765 13.5094C32.3976 13.4096 32.542 13.331 32.7097 13.2736C32.8796 13.2142 33.0686 13.1845 33.2767 13.1845C33.5273 13.1845 33.7481 13.2269 33.9392 13.3119C34.1325 13.3968 34.2833 13.5253 34.3916 13.6973C34.502 13.8672 34.5572 14.0806 34.5572 14.3375V15.9429C34.5572 16.0576 34.5667 16.1797 34.5859 16.3092C34.6071 16.4388 34.6379 16.5503 34.6782 16.6437V16.6947H34.0635C34.0337 16.6267 34.0104 16.5365 33.9934 16.4239C33.9764 16.3092 33.9679 16.2031 33.9679 16.1054ZM34.0698 14.6051L34.0762 15.0192H33.4806C33.3128 15.0192 33.1631 15.033 33.0314 15.0606C32.8998 15.0861 32.7893 15.1254 32.7002 15.1785C32.611 15.2315 32.543 15.2984 32.4963 15.3791C32.4496 15.4577 32.4262 15.5501 32.4262 15.6563C32.4262 15.7646 32.4506 15.8633 32.4995 15.9525C32.5483 16.0417 32.6216 16.1128 32.7193 16.1659C32.8191 16.2169 32.9412 16.2423 33.0856 16.2423C33.2661 16.2423 33.4253 16.2041 33.5634 16.1277C33.7014 16.0512 33.8108 15.9578 33.8915 15.8474C33.9743 15.7369 34.0189 15.6297 34.0252 15.5257L34.2769 15.8091C34.262 15.8983 34.2217 15.9971 34.1558 16.1054C34.09 16.2137 34.0019 16.3177 33.8915 16.4175C33.7832 16.5152 33.6536 16.597 33.5029 16.6628C33.3542 16.7265 33.1864 16.7584 32.9996 16.7584C32.766 16.7584 32.5611 16.7127 32.3848 16.6214C32.2107 16.5301 32.0748 16.408 31.9771 16.2551C31.8815 16.1001 31.8338 15.927 31.8338 15.7359C31.8338 15.5511 31.8699 15.3887 31.9421 15.2485C32.0143 15.1063 32.1183 14.9884 32.2542 14.895C32.3901 14.7994 32.5536 14.7272 32.7448 14.6784C32.9359 14.6295 33.1493 14.6051 33.385 14.6051H34.0698Z" fill="black"/>
<path d="M38.0515 16.2105V16.6947H35.5446V16.2105H38.0515ZM37.9591 13.6654L35.6784 16.6947H35.3185V16.2615L37.5832 13.2482H37.9591V13.6654ZM37.6979 13.2482V13.7355H35.344V13.2482H37.6979Z" fill="black"/>
<path d="M40.7526 16.1054V14.3312C40.7526 14.1953 40.725 14.0774 40.6698 13.9776C40.6167 13.8757 40.536 13.7971 40.4277 13.7419C40.3194 13.6867 40.1856 13.6591 40.0263 13.6591C39.8777 13.6591 39.7471 13.6846 39.6346 13.7355C39.5241 13.7865 39.4371 13.8534 39.3734 13.9362C39.3118 14.019 39.281 14.1082 39.281 14.2038H38.6917C38.6917 14.0806 38.7236 13.9585 38.7873 13.8374C38.851 13.7164 38.9423 13.607 39.0612 13.5094C39.1822 13.4096 39.3266 13.331 39.4944 13.2736C39.6643 13.2142 39.8533 13.1845 40.0614 13.1845C40.312 13.1845 40.5328 13.2269 40.7239 13.3119C40.9172 13.3968 41.0679 13.5253 41.1762 13.6973C41.2867 13.8672 41.3419 14.0806 41.3419 14.3375V15.9429C41.3419 16.0576 41.3514 16.1797 41.3705 16.3092C41.3918 16.4388 41.4226 16.5503 41.4629 16.6437V16.6947H40.8481C40.8184 16.6267 40.7951 16.5365 40.7781 16.4239C40.7611 16.3092 40.7526 16.2031 40.7526 16.1054ZM40.8545 14.6051L40.8609 15.0192H40.2652C40.0975 15.0192 39.9478 15.033 39.8161 15.0606C39.6845 15.0861 39.574 15.1254 39.4848 15.1785C39.3957 15.2315 39.3277 15.2984 39.281 15.3791C39.2343 15.4577 39.2109 15.5501 39.2109 15.6563C39.2109 15.7646 39.2353 15.8633 39.2842 15.9525C39.333 16.0417 39.4063 16.1128 39.504 16.1659C39.6038 16.2169 39.7259 16.2423 39.8703 16.2423C40.0508 16.2423 40.21 16.2041 40.3481 16.1277C40.4861 16.0512 40.5955 15.9578 40.6761 15.8474C40.759 15.7369 40.8036 15.6297 40.8099 15.5257L41.0616 15.8091C41.0467 15.8983 41.0064 15.9971 40.9405 16.1054C40.8747 16.2137 40.7866 16.3177 40.6761 16.4175C40.5678 16.5152 40.4383 16.597 40.2875 16.6628C40.1389 16.7265 39.9711 16.7584 39.7843 16.7584C39.5507 16.7584 39.3458 16.7127 39.1695 16.6214C38.9954 16.5301 38.8595 16.408 38.7618 16.2551C38.6662 16.1001 38.6184 15.927 38.6184 15.7359C38.6184 15.5511 38.6545 15.3887 38.7267 15.2485C38.7989 15.1063 38.903 14.9884 39.0389 14.895C39.1748 14.7994 39.3383 14.7272 39.5294 14.6784C39.7206 14.6295 39.934 14.6051 40.1697 14.6051H40.8545Z" fill="black"/>
<path d="M42.8039 15.9939V16.4685C42.8039 16.6617 42.7551 16.8656 42.6574 17.0801C42.5597 17.2967 42.4227 17.4772 42.2465 17.6216L41.912 17.3891C41.98 17.2956 42.0373 17.2001 42.084 17.1024C42.1308 17.0068 42.1658 16.907 42.1892 16.803C42.2146 16.701 42.2274 16.5927 42.2274 16.4781V15.9939H42.8039Z" fill="black"/>
<path d="M48.8305 12.0569V16.6947H48.2126L45.8777 13.1176V16.6947H45.263V12.0569H45.8777L48.2221 15.6435V12.0569H48.8305Z" fill="black"/>
<path d="M51.2609 16.7584C51.0209 16.7584 50.8033 16.718 50.6079 16.6373C50.4147 16.5545 50.248 16.4388 50.1078 16.2901C49.9698 16.1415 49.8636 15.9652 49.7893 15.7614C49.715 15.5575 49.6778 15.3345 49.6778 15.0925V14.9587C49.6778 14.6784 49.7192 14.4289 49.802 14.2101C49.8848 13.9893 49.9974 13.8024 50.1397 13.6495C50.2819 13.4966 50.4433 13.3809 50.6238 13.3023C50.8043 13.2237 50.9912 13.1845 51.1844 13.1845C51.4308 13.1845 51.6431 13.2269 51.8215 13.3119C52.002 13.3968 52.1496 13.5157 52.2643 13.6686C52.3789 13.8194 52.4639 13.9978 52.5191 14.2038C52.5743 14.4076 52.6019 14.6306 52.6019 14.8727V15.137H50.0282V14.6561H52.0126V14.6115C52.0041 14.4586 51.9723 14.3099 51.9171 14.1655C51.864 14.0211 51.779 13.9022 51.6622 13.8088C51.5454 13.7153 51.3862 13.6686 51.1844 13.6686C51.0507 13.6686 50.9275 13.6973 50.8149 13.7546C50.7024 13.8098 50.6058 13.8927 50.5251 14.0031C50.4444 14.1135 50.3817 14.2484 50.3372 14.4076C50.2926 14.5669 50.2703 14.7506 50.2703 14.9587V15.0925C50.2703 15.256 50.2926 15.4099 50.3372 15.5543C50.3839 15.6966 50.4508 15.8219 50.5378 15.9302C50.627 16.0385 50.7343 16.1234 50.8595 16.185C50.987 16.2466 51.1314 16.2774 51.2927 16.2774C51.5008 16.2774 51.6771 16.2349 51.8215 16.15C51.9659 16.065 52.0923 15.9514 52.2006 15.8091L52.5573 16.0926C52.483 16.2052 52.3885 16.3124 52.2738 16.4144C52.1591 16.5163 52.0179 16.5991 51.8502 16.6628C51.6845 16.7265 51.4881 16.7584 51.2609 16.7584Z" fill="black"/>
<path d="M54.1627 16.0831L55.0482 13.2482H55.4368L55.3604 13.812L54.4589 16.6947H54.0799L54.1627 16.0831ZM53.567 13.2482L54.322 16.1149L54.3761 16.6947H53.9779L52.9778 13.2482H53.567ZM56.2841 16.0926L57.004 13.2482H57.5901L56.5899 16.6947H56.1949L56.2841 16.0926ZM55.5228 13.2482L56.3892 16.0353L56.488 16.6947H56.1121L55.1852 13.8056L55.1087 13.2482H55.5228Z" fill="black"/>
<path d="M60.116 12.0569L61.3201 14.3853L62.5273 12.0569H63.2249L61.6258 14.9619V16.6947H61.0111V14.9619L59.4121 12.0569H60.116Z" fill="black"/>
<path d="M63.365 15.0096V14.9364C63.365 14.6879 63.4011 14.4575 63.4733 14.2452C63.5455 14.0307 63.6496 13.8449 63.7855 13.6877C63.9214 13.5285 64.086 13.4053 64.2792 13.3182C64.4724 13.2291 64.689 13.1845 64.929 13.1845C65.1711 13.1845 65.3887 13.2291 65.582 13.3182C65.7774 13.4053 65.943 13.5285 66.0789 13.6877C66.2169 13.8449 66.322 14.0307 66.3942 14.2452C66.4664 14.4575 66.5025 14.6879 66.5025 14.9364V15.0096C66.5025 15.2581 66.4664 15.4885 66.3942 15.7008C66.322 15.9132 66.2169 16.099 66.0789 16.2583C65.943 16.4154 65.7784 16.5386 65.5852 16.6278C65.3941 16.7148 65.1775 16.7584 64.9354 16.7584C64.6933 16.7584 64.4756 16.7148 64.2824 16.6278C64.0891 16.5386 63.9235 16.4154 63.7855 16.2583C63.6496 16.099 63.5455 15.9132 63.4733 15.7008C63.4011 15.4885 63.365 15.2581 63.365 15.0096ZM63.9543 14.9364V15.0096C63.9543 15.1816 63.9745 15.3441 64.0148 15.497C64.0552 15.6478 64.1157 15.7815 64.1964 15.8983C64.2792 16.0151 64.3822 16.1075 64.5054 16.1755C64.6285 16.2413 64.7719 16.2742 64.9354 16.2742C65.0968 16.2742 65.238 16.2413 65.359 16.1755C65.4822 16.1075 65.5841 16.0151 65.6648 15.8983C65.7455 15.7815 65.806 15.6478 65.8464 15.497C65.8888 15.3441 65.9101 15.1816 65.9101 15.0096V14.9364C65.9101 14.7665 65.8888 14.6062 65.8464 14.4554C65.806 14.3025 65.7444 14.1677 65.6616 14.0509C65.5809 13.9319 65.479 13.8385 65.3558 13.7706C65.2348 13.7026 65.0925 13.6686 64.929 13.6686C64.7676 13.6686 64.6253 13.7026 64.5022 13.7706C64.3811 13.8385 64.2792 13.9319 64.1964 14.0509C64.1157 14.1677 64.0552 14.3025 64.0148 14.4554C63.9745 14.6062 63.9543 14.7665 63.9543 14.9364Z" fill="black"/>
<path d="M67.8308 13.7897V16.6947H67.2415V13.2482H67.8149L67.8308 13.7897ZM68.9074 13.2291L68.9043 13.7769C68.8554 13.7663 68.8087 13.7599 68.7641 13.7578C68.7216 13.7536 68.6728 13.7514 68.6176 13.7514C68.4817 13.7514 68.3617 13.7727 68.2576 13.8151C68.1536 13.8576 68.0655 13.9171 67.9933 13.9935C67.9211 14.07 67.8637 14.1613 67.8213 14.2675C67.7809 14.3715 67.7544 14.4862 67.7416 14.6115L67.576 14.707C67.576 14.4989 67.5962 14.3036 67.6365 14.1209C67.679 13.9383 67.7437 13.7769 67.8308 13.6368C67.9179 13.4945 68.0283 13.3841 68.1621 13.3055C68.298 13.2248 68.4594 13.1845 68.6462 13.1845C68.6887 13.1845 68.7376 13.1898 68.7928 13.2004C68.848 13.2089 68.8862 13.2184 68.9074 13.2291Z" fill="black"/>
<path d="M70.0446 11.802V16.6947H69.4521V11.802H70.0446ZM72.1501 13.2482L70.6466 14.8567L69.8057 15.7295L69.7579 15.102L70.3599 14.3821L71.4302 13.2482H72.1501ZM71.6118 16.6947L70.3822 15.051L70.688 14.5255L72.3062 16.6947H71.6118Z" fill="black"/>
<path d="M73.2936 15.9939V16.4685C73.2936 16.6617 73.2448 16.8656 73.1471 17.0801C73.0494 17.2967 72.9124 17.4772 72.7362 17.6216L72.4017 17.3891C72.4697 17.2956 72.527 17.2001 72.5737 17.1024C72.6204 17.0068 72.6555 16.907 72.6788 16.803C72.7043 16.701 72.717 16.5927 72.717 16.4781V15.9939H73.2936Z" fill="black"/>
<path d="M80.9383 12.0569V16.6947H80.3204L77.9855 13.1176V16.6947H77.3708V12.0569H77.9855L80.3299 15.6435V12.0569H80.9383Z" fill="black"/>
<path d="M82.1519 12.0569L83.3559 14.3853L84.5632 12.0569H85.2608L83.6617 14.9619V16.6947H83.047V14.9619L81.448 12.0569H82.1519Z" fill="black"/>
<path d="M89.2583 12.0314V16.6947H88.669V12.7672L87.4809 13.2004V12.6684L89.1659 12.0314H89.2583Z" fill="black"/>
<path d="M93.9025 14.0063V14.7134C93.9025 15.0935 93.8685 15.4142 93.8005 15.6754C93.7326 15.9366 93.6349 16.1468 93.5075 16.3061C93.3801 16.4653 93.2261 16.581 93.0456 16.6532C92.8672 16.7233 92.6655 16.7584 92.4404 16.7584C92.262 16.7584 92.0975 16.7361 91.9467 16.6915C91.7959 16.6469 91.66 16.5757 91.539 16.4781C91.4201 16.3783 91.3181 16.2487 91.2332 16.0895C91.1482 15.9302 91.0835 15.7369 91.0389 15.5097C90.9943 15.2825 90.972 15.0171 90.972 14.7134V14.0063C90.972 13.6262 91.006 13.3076 91.0739 13.0507C91.144 12.7937 91.2427 12.5877 91.3702 12.4327C91.4976 12.2756 91.6505 12.163 91.8288 12.0951C92.0093 12.0271 92.2111 11.9932 92.434 11.9932C92.6145 11.9932 92.7802 12.0155 92.931 12.0601C93.0838 12.1025 93.2197 12.1715 93.3387 12.2671C93.4576 12.3605 93.5585 12.4858 93.6413 12.643C93.7262 12.798 93.791 12.988 93.8356 13.2131C93.8802 13.4382 93.9025 13.7026 93.9025 14.0063ZM93.31 14.809V13.9075C93.31 13.6994 93.2973 13.5168 93.2718 13.3597C93.2484 13.2004 93.2134 13.0645 93.1667 12.9519C93.1199 12.8394 93.0605 12.7481 92.9883 12.678C92.9182 12.6079 92.8365 12.557 92.743 12.5251C92.6517 12.4911 92.5487 12.4741 92.434 12.4741C92.2939 12.4741 92.1697 12.5007 92.0614 12.5538C91.9531 12.6047 91.8618 12.6865 91.7874 12.799C91.7152 12.9116 91.66 13.0592 91.6218 13.2418C91.5836 13.4244 91.5645 13.6463 91.5645 13.9075V14.809C91.5645 15.0171 91.5761 15.2008 91.5995 15.36C91.625 15.5193 91.6621 15.6573 91.711 15.7741C91.7598 15.8888 91.8193 15.9833 91.8894 16.0576C91.9594 16.1319 92.0401 16.1871 92.1314 16.2232C92.2249 16.2572 92.3279 16.2742 92.4404 16.2742C92.5848 16.2742 92.7112 16.2466 92.8195 16.1914C92.9278 16.1362 93.018 16.0502 93.0902 15.9334C93.1645 15.8145 93.2197 15.6626 93.2559 15.4779C93.292 15.291 93.31 15.068 93.31 14.809Z" fill="black"/>
<path d="M96.5972 12.0314V16.6947H96.0079V12.7672L94.8198 13.2004V12.6684L96.5049 12.0314H96.5972Z" fill="black"/>
<path d="M101.369 16.2105V16.6947H98.3332V16.271L99.8526 14.5796C100.039 14.3715 100.184 14.1953 100.286 14.0509C100.39 13.9043 100.462 13.7737 100.502 13.6591C100.545 13.5423 100.566 13.4234 100.566 13.3023C100.566 13.1494 100.534 13.0114 100.471 12.8882C100.409 12.7629 100.318 12.6631 100.197 12.5888C100.076 12.5145 99.929 12.4773 99.757 12.4773C99.5511 12.4773 99.3791 12.5177 99.241 12.5984C99.1051 12.6769 99.0032 12.7874 98.9352 12.9296C98.8673 13.0719 98.8333 13.2354 98.8333 13.4202H98.244C98.244 13.159 98.3014 12.9201 98.416 12.7035C98.5307 12.4869 98.7006 12.3149 98.9257 12.1875C99.1508 12.0579 99.4279 11.9932 99.757 11.9932C100.05 11.9932 100.301 12.0452 100.509 12.1492C100.717 12.2512 100.876 12.3956 100.987 12.5824C101.099 12.7672 101.155 12.9838 101.155 13.2322C101.155 13.3681 101.132 13.5062 101.085 13.6463C101.041 13.7844 100.978 13.9224 100.897 14.0604C100.819 14.1984 100.726 14.3344 100.62 14.4681C100.516 14.6019 100.405 14.7336 100.286 14.8631L99.0435 16.2105H101.369Z" fill="black"/>
<path d="M105.038 16.2105V16.6947H102.003V16.271L103.522 14.5796C103.709 14.3715 103.853 14.1953 103.955 14.0509C104.059 13.9043 104.132 13.7737 104.172 13.6591C104.214 13.5423 104.236 13.4234 104.236 13.3023C104.236 13.1494 104.204 13.0114 104.14 12.8882C104.078 12.7629 103.987 12.6631 103.866 12.5888C103.745 12.5145 103.599 12.4773 103.427 12.4773C103.221 12.4773 103.049 12.5177 102.91 12.5984C102.775 12.6769 102.673 12.7874 102.605 12.9296C102.537 13.0719 102.503 13.2354 102.503 13.4202H101.913C101.913 13.159 101.971 12.9201 102.085 12.7035C102.2 12.4869 102.37 12.3149 102.595 12.1875C102.82 12.0579 103.097 11.9932 103.427 11.9932C103.72 11.9932 103.97 12.0452 104.178 12.1492C104.386 12.2512 104.546 12.3956 104.656 12.5824C104.769 12.7672 104.825 12.9838 104.825 13.2322C104.825 13.3681 104.801 13.5062 104.755 13.6463C104.71 13.7844 104.648 13.9224 104.567 14.0604C104.488 14.1984 104.396 14.3344 104.29 14.4681C104.186 14.6019 104.074 14.7336 103.955 14.8631L102.713 16.2105H105.038Z" fill="black"/>
<path d="M2.69466 24.3808H1.50017V23.6928H2.69466C2.89002 23.6928 3.04822 23.6609 3.16926 23.5972C3.29243 23.5314 3.38268 23.4422 3.44002 23.3296C3.49735 23.215 3.52602 23.0844 3.52602 22.9378C3.52602 22.7956 3.49735 22.6628 3.44002 22.5397C3.38268 22.4165 3.29243 22.3167 3.16926 22.2403C3.04822 22.1638 2.89002 22.1256 2.69466 22.1256H1.78685V26.0722H0.910889V21.4344H2.69466C3.05566 21.4344 3.36357 21.4991 3.61839 21.6287C3.87534 21.7561 4.0707 21.9334 4.20449 22.1606C4.34039 22.3857 4.40835 22.6427 4.40835 22.9315C4.40835 23.2309 4.34039 23.4889 4.20449 23.7055C4.0707 23.9221 3.87534 24.0888 3.61839 24.2056C3.36357 24.3224 3.05566 24.3808 2.69466 24.3808Z" fill="black"/>
<path d="M5.85766 21.1796V26.0722H5.01355V21.1796H5.85766ZM5.72387 24.2247H5.47542C5.47542 23.9847 5.50727 23.7639 5.57098 23.5622C5.63469 23.3604 5.72494 23.1852 5.84173 23.0366C5.95852 22.8858 6.09761 22.769 6.259 22.6862C6.42252 22.6034 6.60302 22.562 6.8005 22.562C6.97039 22.562 7.12434 22.5864 7.26237 22.6352C7.40252 22.682 7.5225 22.7573 7.62231 22.8614C7.72212 22.9654 7.79856 23.1014 7.85165 23.2691C7.90686 23.4347 7.93447 23.6365 7.93447 23.8743V26.0722H7.08718V23.8679C7.08718 23.7087 7.06382 23.5834 7.0171 23.4921C6.97039 23.3986 6.9035 23.3318 6.81643 23.2914C6.73149 23.2511 6.62637 23.2309 6.50109 23.2309C6.36518 23.2309 6.24839 23.2574 6.1507 23.3105C6.05302 23.3615 5.97233 23.4326 5.90862 23.5239C5.84704 23.6152 5.80032 23.7204 5.76847 23.8393C5.73874 23.9582 5.72387 24.0867 5.72387 24.2247Z" fill="black"/>
<path d="M8.52694 24.384V24.3171C8.52694 24.0644 8.56304 23.8319 8.63524 23.6195C8.70744 23.405 8.81255 23.2192 8.95058 23.0621C9.08861 22.9049 9.25743 22.7828 9.45704 22.6958C9.65665 22.6066 9.88387 22.562 10.1387 22.562C10.3978 22.562 10.6271 22.6066 10.8267 22.6958C11.0285 22.7828 11.1983 22.9049 11.3364 23.0621C11.4744 23.2192 11.5795 23.405 11.6517 23.6195C11.7239 23.8319 11.76 24.0644 11.76 24.3171V24.384C11.76 24.6345 11.7239 24.8671 11.6517 25.0815C11.5795 25.2939 11.4744 25.4797 11.3364 25.639C11.1983 25.7961 11.0295 25.9182 10.8299 26.0053C10.6303 26.0924 10.402 26.1359 10.1451 26.1359C9.89024 26.1359 9.66196 26.0924 9.46023 26.0053C9.25849 25.9182 9.08861 25.7961 8.95058 25.639C8.81255 25.4797 8.70744 25.2939 8.63524 25.0815C8.56304 24.8671 8.52694 24.6345 8.52694 24.384ZM9.36785 24.3171V24.384C9.36785 24.5347 9.38272 24.676 9.41245 24.8076C9.44218 24.9393 9.48783 25.055 9.54942 25.1548C9.611 25.2546 9.69063 25.3332 9.78831 25.3905C9.88812 25.4457 10.007 25.4733 10.1451 25.4733C10.281 25.4733 10.3978 25.4457 10.4954 25.3905C10.5931 25.3332 10.6728 25.2546 10.7343 25.1548C10.7981 25.055 10.8448 24.9393 10.8745 24.8076C10.9042 24.676 10.9191 24.5347 10.9191 24.384V24.3171C10.9191 24.1684 10.9042 24.0293 10.8745 23.8998C10.8448 23.7681 10.7981 23.6524 10.7343 23.5526C10.6728 23.4507 10.5921 23.371 10.4923 23.3137C10.3946 23.2542 10.2767 23.2245 10.1387 23.2245C10.0028 23.2245 9.886 23.2542 9.78831 23.3137C9.69063 23.371 9.611 23.4507 9.54942 23.5526C9.48783 23.6524 9.44218 23.7681 9.41245 23.8998C9.38272 24.0293 9.36785 24.1684 9.36785 24.3171Z" fill="black"/>
<path d="M13.1966 23.3615V26.0722H12.3557V22.6257H13.1456L13.1966 23.3615ZM13.0628 24.2247H12.8143C12.8165 23.9741 12.8504 23.7469 12.9163 23.543C12.9821 23.3392 13.0745 23.164 13.1934 23.0175C13.3144 22.871 13.4578 22.7584 13.6234 22.6798C13.789 22.6013 13.9738 22.562 14.1777 22.562C14.3433 22.562 14.493 22.5853 14.6268 22.6321C14.7606 22.6788 14.8752 22.7531 14.9708 22.855C15.0685 22.957 15.1428 23.0907 15.1938 23.2564C15.2469 23.4199 15.2734 23.6216 15.2734 23.8616V26.0722H14.4261V23.8552C14.4261 23.6981 14.4027 23.5738 14.356 23.4825C14.3114 23.3912 14.2456 23.3264 14.1585 23.2882C14.0736 23.25 13.9685 23.2309 13.8432 23.2309C13.7137 23.2309 13.6001 23.2574 13.5024 23.3105C13.4068 23.3615 13.3261 23.4326 13.2603 23.5239C13.1966 23.6152 13.1477 23.7204 13.1138 23.8393C13.0798 23.9582 13.0628 24.0867 13.0628 24.2247Z" fill="black"/>
<path d="M17.5636 26.1359C17.3024 26.1359 17.0678 26.0934 16.8597 26.0085C16.6516 25.9235 16.4743 25.8057 16.3277 25.6549C16.1833 25.502 16.0718 25.3247 15.9933 25.123C15.9168 24.9191 15.8786 24.7004 15.8786 24.4668V24.3394C15.8786 24.0739 15.9168 23.8329 15.9933 23.6163C16.0697 23.3976 16.178 23.2097 16.3182 23.0525C16.4583 22.8954 16.6261 22.7743 16.8215 22.6894C17.0168 22.6044 17.2324 22.562 17.4681 22.562C17.7123 22.562 17.9278 22.6034 18.1147 22.6862C18.3016 22.7669 18.4576 22.8816 18.5829 23.0302C18.7082 23.1789 18.8027 23.3572 18.8664 23.5653C18.9301 23.7713 18.962 23.9996 18.962 24.2502V24.6038H16.2608V24.024H18.1338V23.9603C18.1295 23.8265 18.1041 23.7044 18.0573 23.594C18.0106 23.4815 17.9384 23.3923 17.8407 23.3264C17.7431 23.2585 17.6167 23.2245 17.4617 23.2245C17.3364 23.2245 17.227 23.2521 17.1336 23.3073C17.0423 23.3604 16.9659 23.4369 16.9043 23.5367C16.8448 23.6344 16.8002 23.7512 16.7705 23.8871C16.7408 24.023 16.7259 24.1737 16.7259 24.3394V24.4668C16.7259 24.6112 16.745 24.745 16.7832 24.8681C16.8236 24.9913 16.882 25.0985 16.9584 25.1898C17.037 25.279 17.1304 25.3491 17.2387 25.4001C17.3491 25.4489 17.4744 25.4733 17.6146 25.4733C17.7908 25.4733 17.9501 25.4394 18.0924 25.3714C18.2368 25.3013 18.3621 25.1983 18.4682 25.0624L18.8919 25.502C18.8197 25.6082 18.722 25.7101 18.5988 25.8078C18.4778 25.9055 18.3313 25.9851 18.1593 26.0467C17.9873 26.1062 17.7887 26.1359 17.5636 26.1359Z" fill="black"/>
<path d="M19.5449 25.6613C19.5449 25.5339 19.5884 25.4266 19.6755 25.3396C19.7625 25.2525 19.8804 25.209 20.029 25.209C20.1777 25.209 20.2955 25.2525 20.3826 25.3396C20.4697 25.4266 20.5132 25.5339 20.5132 25.6613C20.5132 25.7866 20.4697 25.8927 20.3826 25.9798C20.2955 26.0647 20.1777 26.1072 20.029 26.1072C19.8804 26.1072 19.7625 26.0647 19.6755 25.9798C19.5884 25.8927 19.5449 25.7866 19.5449 25.6613ZM19.5481 22.9888C19.5481 22.8614 19.5916 22.7542 19.6787 22.6671C19.7657 22.58 19.8836 22.5365 20.0322 22.5365C20.1809 22.5365 20.2987 22.58 20.3858 22.6671C20.4729 22.7542 20.5164 22.8614 20.5164 22.9888C20.5164 23.1141 20.4729 23.2203 20.3858 23.3073C20.2987 23.3923 20.1809 23.4347 20.0322 23.4347C19.8836 23.4347 19.7657 23.3923 19.6787 23.3073C19.5916 23.2203 19.5481 23.1141 19.5481 22.9888Z" fill="black"/>
<path d="M22.9691 24.2183V24.1865C22.9691 23.7235 23.0211 23.3052 23.1252 22.9315C23.2292 22.5556 23.3619 22.2265 23.5233 21.944C23.6847 21.6616 23.8546 21.428 24.033 21.2433C24.2113 21.0564 24.3759 20.9215 24.5267 20.8387L24.6509 21.2273C24.5256 21.3229 24.3982 21.4546 24.2687 21.6223C24.1413 21.7901 24.0234 21.9961 23.9151 22.2403C23.8089 22.4845 23.7229 22.768 23.6571 23.0907C23.5913 23.4135 23.5584 23.7766 23.5584 24.1801V24.2247C23.5584 24.6282 23.5913 24.9924 23.6571 25.3173C23.7229 25.64 23.8089 25.9246 23.9151 26.1709C24.0234 26.4172 24.1413 26.6264 24.2687 26.7984C24.3982 26.9726 24.5256 27.1106 24.6509 27.2125L24.5267 27.5693C24.3759 27.4864 24.2113 27.3516 24.033 27.1647C23.8546 26.98 23.6847 26.7464 23.5233 26.464C23.3619 26.1837 23.2292 25.8556 23.1252 25.4797C23.0211 25.1038 22.9691 24.6834 22.9691 24.2183Z" fill="black"/>
<path d="M28.2025 25.588V26.0722H25.1669V25.6485L26.6863 23.9571C26.8732 23.749 27.0176 23.5728 27.1195 23.4284C27.2236 23.2819 27.2958 23.1513 27.3361 23.0366C27.3786 22.9198 27.3998 22.8009 27.3998 22.6798C27.3998 22.5269 27.368 22.3889 27.3043 22.2657C27.2427 22.1405 27.1514 22.0406 27.0303 21.9663C26.9093 21.892 26.7628 21.8548 26.5908 21.8548C26.3848 21.8548 26.2128 21.8952 26.0747 21.9759C25.9388 22.0545 25.8369 22.1649 25.769 22.3072C25.701 22.4494 25.667 22.6129 25.667 22.7977H25.0777C25.0777 22.5365 25.1351 22.2976 25.2497 22.081C25.3644 21.8644 25.5343 21.6924 25.7594 21.565C25.9845 21.4354 26.2616 21.3707 26.5908 21.3707C26.8838 21.3707 27.1344 21.4227 27.3425 21.5268C27.5506 21.6287 27.7099 21.7731 27.8203 21.96C27.9328 22.1447 27.9891 22.3613 27.9891 22.6098C27.9891 22.7457 27.9657 22.8837 27.919 23.0238C27.8744 23.1619 27.8118 23.2999 27.7311 23.4379C27.6525 23.576 27.5602 23.7119 27.454 23.8457C27.3499 23.9794 27.2384 24.1111 27.1195 24.2406L25.8773 25.588H28.2025Z" fill="black"/>
<path d="M30.7699 21.4089V26.0722H30.1806V22.1447L28.9925 22.5779V22.046L30.6775 21.4089H30.7699Z" fill="black"/>
<path d="M35.5414 25.588V26.0722H32.5059V25.6485L34.0252 23.9571C34.2121 23.749 34.3565 23.5728 34.4584 23.4284C34.5625 23.2819 34.6347 23.1513 34.675 23.0366C34.7175 22.9198 34.7388 22.8009 34.7388 22.6798C34.7388 22.5269 34.7069 22.3889 34.6432 22.2657C34.5816 22.1405 34.4903 22.0406 34.3693 21.9663C34.2482 21.892 34.1017 21.8548 33.9297 21.8548C33.7237 21.8548 33.5517 21.8952 33.4137 21.9759C33.2778 22.0545 33.1758 22.1649 33.1079 22.3072C33.0399 22.4494 33.0059 22.6129 33.0059 22.7977H32.4167C32.4167 22.5365 32.474 22.2976 32.5887 22.081C32.7033 21.8644 32.8732 21.6924 33.0983 21.565C33.3234 21.4354 33.6005 21.3707 33.9297 21.3707C34.2227 21.3707 34.4733 21.4227 34.6814 21.5268C34.8895 21.6287 35.0488 21.7731 35.1592 21.96C35.2718 22.1447 35.328 22.3613 35.328 22.6098C35.328 22.7457 35.3047 22.8837 35.258 23.0238C35.2134 23.1619 35.1507 23.2999 35.07 23.4379C34.9915 23.576 34.8991 23.7119 34.7929 23.8457C34.6888 23.9794 34.5774 24.1111 34.4584 24.2406L33.2162 25.588H35.5414Z" fill="black"/>
<path d="M37.5928 24.1865V24.2183C37.5928 24.6834 37.5407 25.1038 37.4367 25.4797C37.3326 25.8556 37.1999 26.1837 37.0385 26.464C36.8771 26.7464 36.7073 26.98 36.5289 27.1647C36.3505 27.3516 36.1859 27.4864 36.0352 27.5693L35.9109 27.2125C36.0362 27.117 36.1626 26.9832 36.29 26.8112C36.4174 26.6413 36.5353 26.4311 36.6436 26.1805C36.7519 25.932 36.8389 25.6453 36.9048 25.3204C36.9706 24.9934 37.0035 24.6282 37.0035 24.2247V24.1801C37.0035 23.7766 36.9685 23.4125 36.8984 23.0876C36.8283 22.7605 36.737 22.4728 36.6244 22.2243C36.514 21.9759 36.3951 21.7667 36.2677 21.5968C36.1424 21.4248 36.0235 21.2921 35.9109 21.1987L36.0352 20.8387C36.1859 20.9215 36.3505 21.0564 36.5289 21.2433C36.7073 21.428 36.8771 21.6616 37.0385 21.944C37.1999 22.2265 37.3326 22.5556 37.4367 22.9315C37.5407 23.3052 37.5928 23.7235 37.5928 24.1865Z" fill="black"/>
<path d="M40.9246 23.4634H41.3451C41.551 23.4634 41.7209 23.4294 41.8547 23.3615C41.9906 23.2914 42.0915 23.1969 42.1573 23.078C42.2253 22.957 42.2592 22.821 42.2592 22.6703C42.2592 22.4919 42.2295 22.3422 42.17 22.2212C42.1106 22.1001 42.0214 22.0088 41.9025 21.9472C41.7836 21.8856 41.6328 21.8548 41.4502 21.8548C41.2845 21.8548 41.138 21.8878 41.0106 21.9536C40.8853 22.0173 40.7866 22.1086 40.7144 22.2275C40.6443 22.3464 40.6093 22.4866 40.6093 22.648H40.02C40.02 22.4123 40.0794 22.1978 40.1983 22.0046C40.3173 21.8113 40.484 21.6574 40.6984 21.5427C40.915 21.428 41.1656 21.3707 41.4502 21.3707C41.7305 21.3707 41.9757 21.4206 42.186 21.5204C42.3962 21.6181 42.5597 21.7646 42.6765 21.96C42.7933 22.1532 42.8517 22.3942 42.8517 22.683C42.8517 22.7998 42.8241 22.9251 42.7689 23.0589C42.7158 23.1905 42.6319 23.3137 42.5172 23.4284C42.4047 23.543 42.2582 23.6375 42.0777 23.7119C41.8972 23.7841 41.6806 23.8202 41.4279 23.8202H40.9246V23.4634ZM40.9246 23.9476V23.594H41.4279C41.723 23.594 41.9673 23.6291 42.1605 23.6991C42.3537 23.7692 42.5056 23.8626 42.616 23.9794C42.7285 24.0962 42.8071 24.2247 42.8517 24.3649C42.8984 24.5029 42.9218 24.6409 42.9218 24.7789C42.9218 24.9955 42.8846 25.1877 42.8103 25.3555C42.7381 25.5232 42.6351 25.6655 42.5013 25.7823C42.3697 25.8991 42.2146 25.9872 42.0363 26.0467C41.8579 26.1062 41.6636 26.1359 41.4534 26.1359C41.2516 26.1359 41.0616 26.1072 40.8832 26.0499C40.7069 25.9925 40.5509 25.9097 40.415 25.8014C40.279 25.691 40.1729 25.5562 40.0964 25.3969C40.02 25.2355 39.9818 25.0518 39.9818 24.8458H40.571C40.571 25.0072 40.6061 25.1484 40.6761 25.2695C40.7483 25.3905 40.8503 25.485 40.9819 25.553C41.1157 25.6188 41.2729 25.6517 41.4534 25.6517C41.6339 25.6517 41.7889 25.6209 41.9184 25.5593C42.0501 25.4956 42.1509 25.4001 42.221 25.2727C42.2932 25.1453 42.3293 24.9849 42.3293 24.7917C42.3293 24.5984 42.289 24.4402 42.2083 24.3171C42.1276 24.1918 42.0129 24.0994 41.8643 24.04C41.7177 23.9784 41.5447 23.9476 41.3451 23.9476H40.9246Z" fill="black"/>
<path d="M44.4794 23.8648L44.008 23.7437L44.2405 21.4344H46.6199V21.9791H44.7406L44.6004 23.2404C44.6854 23.1916 44.7926 23.1459 44.9221 23.1035C45.0538 23.061 45.2046 23.0398 45.3745 23.0398C45.5889 23.0398 45.7811 23.0769 45.951 23.1513C46.1209 23.2235 46.2653 23.3275 46.3842 23.4634C46.5052 23.5993 46.5976 23.7628 46.6613 23.954C46.725 24.1451 46.7569 24.3585 46.7569 24.5942C46.7569 24.8172 46.7261 25.0221 46.6645 25.209C46.605 25.3958 46.5148 25.5593 46.3938 25.6995C46.2727 25.8375 46.1198 25.9448 45.9351 26.0212C45.7524 26.0977 45.5369 26.1359 45.2885 26.1359C45.1016 26.1359 44.9243 26.1104 44.7565 26.0594C44.5909 26.0063 44.4422 25.9267 44.3106 25.8205C44.181 25.7122 44.0749 25.5785 43.992 25.4192C43.9113 25.2578 43.8604 25.0688 43.8391 24.8522H44.3998C44.4252 25.0263 44.4762 25.1729 44.5527 25.2918C44.6291 25.4107 44.7289 25.5009 44.8521 25.5625C44.9774 25.622 45.1228 25.6517 45.2885 25.6517C45.4286 25.6517 45.5528 25.6273 45.6611 25.5785C45.7694 25.5296 45.8607 25.4595 45.9351 25.3682C46.0094 25.2769 46.0657 25.1665 46.1039 25.037C46.1442 24.9074 46.1644 24.762 46.1644 24.6006C46.1644 24.454 46.1442 24.3181 46.1039 24.1929C46.0635 24.0676 46.003 23.9582 45.9223 23.8648C45.8438 23.7713 45.7471 23.6991 45.6325 23.6482C45.5178 23.5951 45.3861 23.5685 45.2375 23.5685C45.04 23.5685 44.8903 23.5951 44.7884 23.6482C44.6886 23.7013 44.5856 23.7735 44.4794 23.8648Z" fill="black"/>
<path d="M49.6651 21.428H49.716V21.9281H49.6651C49.3529 21.9281 49.0917 21.9791 48.8815 22.081C48.6712 22.1808 48.5045 22.3156 48.3814 22.4855C48.2582 22.6533 48.169 22.8423 48.1138 23.0525C48.0607 23.2627 48.0342 23.4762 48.0342 23.6928V24.3744C48.0342 24.5804 48.0586 24.763 48.1074 24.9223C48.1563 25.0794 48.2232 25.2121 48.3081 25.3204C48.3931 25.4287 48.4886 25.5105 48.5948 25.5657C48.7031 25.6209 48.8156 25.6485 48.9324 25.6485C49.0683 25.6485 49.1894 25.623 49.2956 25.5721C49.4017 25.519 49.4909 25.4457 49.5631 25.3523C49.6374 25.2567 49.6937 25.1442 49.7319 25.0147C49.7702 24.8851 49.7893 24.7428 49.7893 24.5878C49.7893 24.4498 49.7723 24.3171 49.7383 24.1897C49.7043 24.0601 49.6523 23.9455 49.5822 23.8457C49.5122 23.7437 49.424 23.6641 49.3179 23.6068C49.2138 23.5473 49.0896 23.5176 48.9452 23.5176C48.7817 23.5176 48.6288 23.5579 48.4865 23.6386C48.3463 23.7172 48.2306 23.8212 48.1393 23.9508C48.0501 24.0782 47.9991 24.2173 47.9864 24.368L47.6742 24.3649C47.704 24.127 47.7592 23.9242 47.8399 23.7565C47.9227 23.5866 48.0246 23.4486 48.1457 23.3424C48.2688 23.2341 48.4058 23.1555 48.5566 23.1067C48.7095 23.0557 48.8709 23.0302 49.0407 23.0302C49.2722 23.0302 49.4718 23.0737 49.6396 23.1608C49.8073 23.2479 49.9454 23.3647 50.0537 23.5112C50.162 23.6556 50.2416 23.8191 50.2926 24.0017C50.3456 24.1822 50.3722 24.368 50.3722 24.5592C50.3722 24.7779 50.3414 24.9828 50.2798 25.1739C50.2182 25.365 50.1259 25.5328 50.0027 25.6772C49.8817 25.8216 49.7319 25.9341 49.5536 26.0148C49.3752 26.0955 49.1681 26.1359 48.9324 26.1359C48.6819 26.1359 48.4631 26.0849 48.2763 25.983C48.0894 25.8789 47.9344 25.7409 47.8112 25.5689C47.688 25.3969 47.5957 25.2058 47.5341 24.9955C47.4725 24.7853 47.4417 24.5719 47.4417 24.3553V24.0782C47.4417 23.7512 47.4746 23.4305 47.5405 23.1162C47.6063 22.8019 47.7199 22.5174 47.8813 22.2626C48.0448 22.0077 48.271 21.8049 48.5598 21.6542C48.8486 21.5034 49.217 21.428 49.6651 21.428Z" fill="black"/>
<path d="M52.363 23.8584V24.3426H50.8086V23.8584H52.363Z" fill="black"/>
<path d="M53.6212 23.8648L53.1498 23.7437L53.3823 21.4344H55.7617V21.9791H53.8824L53.7422 23.2404C53.8272 23.1916 53.9344 23.1459 54.0639 23.1035C54.1956 23.061 54.3464 23.0398 54.5163 23.0398C54.7307 23.0398 54.9229 23.0769 55.0928 23.1513C55.2627 23.2235 55.4071 23.3275 55.526 23.4634C55.647 23.5993 55.7394 23.7628 55.8031 23.954C55.8668 24.1451 55.8987 24.3585 55.8987 24.5942C55.8987 24.8172 55.8679 25.0221 55.8063 25.209C55.7468 25.3958 55.6566 25.5593 55.5356 25.6995C55.4145 25.8375 55.2616 25.9448 55.0769 26.0212C54.8942 26.0977 54.6787 26.1359 54.4303 26.1359C54.2434 26.1359 54.0661 26.1104 53.8983 26.0594C53.7327 26.0063 53.584 25.9267 53.4524 25.8205C53.3228 25.7122 53.2167 25.5785 53.1338 25.4192C53.0532 25.2578 53.0022 25.0688 52.9809 24.8522H53.5416C53.567 25.0263 53.618 25.1729 53.6945 25.2918C53.7709 25.4107 53.8707 25.5009 53.9939 25.5625C54.1192 25.622 54.2646 25.6517 54.4303 25.6517C54.5704 25.6517 54.6946 25.6273 54.8029 25.5785C54.9112 25.5296 55.0026 25.4595 55.0769 25.3682C55.1512 25.2769 55.2075 25.1665 55.2457 25.037C55.286 24.9074 55.3062 24.762 55.3062 24.6006C55.3062 24.454 55.286 24.3181 55.2457 24.1929C55.2053 24.0676 55.1448 23.9582 55.0641 23.8648C54.9856 23.7713 54.8889 23.6991 54.7743 23.6482C54.6596 23.5951 54.5279 23.5685 54.3793 23.5685C54.1818 23.5685 54.0321 23.5951 53.9302 23.6482C53.8304 23.7013 53.7274 23.7735 53.6212 23.8648Z" fill="black"/>
<path d="M58.482 21.4089V26.0722H57.8927V22.1447L56.7046 22.5779V22.046L58.3896 21.4089H58.482Z" fill="black"/>
<path d="M63.1261 23.3838V24.0909C63.1261 24.471 63.0921 24.7917 63.0242 25.0529C62.9562 25.3141 62.8586 25.5243 62.7311 25.6836C62.6037 25.8428 62.4498 25.9586 62.2693 26.0308C62.0909 26.1008 61.8892 26.1359 61.6641 26.1359C61.4857 26.1359 61.3211 26.1136 61.1703 26.069C61.0196 26.0244 60.8837 25.9533 60.7626 25.8556C60.6437 25.7558 60.5418 25.6262 60.4568 25.467C60.3719 25.3077 60.3071 25.1145 60.2625 24.8872C60.2179 24.66 60.1956 24.3946 60.1956 24.0909V23.3838C60.1956 23.0037 60.2296 22.6851 60.2976 22.4282C60.3677 22.1712 60.4664 21.9653 60.5938 21.8102C60.7212 21.6531 60.8741 21.5406 61.0525 21.4726C61.233 21.4047 61.4347 21.3707 61.6577 21.3707C61.8382 21.3707 62.0038 21.393 62.1546 21.4376C62.3075 21.48 62.4434 21.5491 62.5623 21.6446C62.6812 21.738 62.7821 21.8633 62.8649 22.0205C62.9499 22.1755 63.0146 22.3656 63.0592 22.5906C63.1038 22.8157 63.1261 23.0801 63.1261 23.3838ZM62.5337 24.1865V23.285C62.5337 23.0769 62.5209 22.8943 62.4954 22.7372C62.4721 22.5779 62.437 22.442 62.3903 22.3295C62.3436 22.2169 62.2841 22.1256 62.2119 22.0555C62.1419 21.9854 62.0601 21.9345 61.9667 21.9026C61.8754 21.8686 61.7724 21.8517 61.6577 21.8517C61.5175 21.8517 61.3933 21.8782 61.285 21.9313C61.1767 21.9823 61.0854 22.064 61.0111 22.1766C60.9389 22.2891 60.8837 22.4367 60.8454 22.6193C60.8072 22.8019 60.7881 23.0238 60.7881 23.285V24.1865C60.7881 24.3946 60.7998 24.5783 60.8232 24.7375C60.8486 24.8968 60.8858 25.0348 60.9346 25.1516C60.9835 25.2663 61.0429 25.3608 61.113 25.4351C61.1831 25.5094 61.2638 25.5647 61.3551 25.6008C61.4485 25.6347 61.5515 25.6517 61.6641 25.6517C61.8085 25.6517 61.9348 25.6241 62.0431 25.5689C62.1514 25.5137 62.2417 25.4277 62.3139 25.3109C62.3882 25.192 62.4434 25.0401 62.4795 24.8554C62.5156 24.6685 62.5337 24.4456 62.5337 24.1865Z" fill="black"/>
<path d="M66.7956 23.3838V24.0909C66.7956 24.471 66.7616 24.7917 66.6937 25.0529C66.6257 25.3141 66.528 25.5243 66.4006 25.6836C66.2732 25.8428 66.1192 25.9586 65.9387 26.0308C65.7604 26.1008 65.5586 26.1359 65.3335 26.1359C65.1552 26.1359 64.9906 26.1136 64.8398 26.069C64.689 26.0244 64.5531 25.9533 64.4321 25.8556C64.3132 25.7558 64.2112 25.6262 64.1263 25.467C64.0414 25.3077 63.9766 25.1145 63.932 24.8872C63.8874 24.66 63.8651 24.3946 63.8651 24.0909V23.3838C63.8651 23.0037 63.8991 22.6851 63.967 22.4282C64.0371 22.1712 64.1359 21.9653 64.2633 21.8102C64.3907 21.6531 64.5436 21.5406 64.722 21.4726C64.9025 21.4047 65.1042 21.3707 65.3272 21.3707C65.5077 21.3707 65.6733 21.393 65.8241 21.4376C65.977 21.48 66.1129 21.5491 66.2318 21.6446C66.3507 21.738 66.4516 21.8633 66.5344 22.0205C66.6193 22.1755 66.6841 22.3656 66.7287 22.5906C66.7733 22.8157 66.7956 23.0801 66.7956 23.3838ZM66.2031 24.1865V23.285C66.2031 23.0769 66.1904 22.8943 66.1649 22.7372C66.1415 22.5779 66.1065 22.442 66.0598 22.3295C66.0131 22.2169 65.9536 22.1256 65.8814 22.0555C65.8113 21.9854 65.7296 21.9345 65.6361 21.9026C65.5448 21.8686 65.4418 21.8517 65.3272 21.8517C65.187 21.8517 65.0628 21.8782 64.9545 21.9313C64.8462 21.9823 64.7549 22.064 64.6805 22.1766C64.6083 22.2891 64.5531 22.4367 64.5149 22.6193C64.4767 22.8019 64.4576 23.0238 64.4576 23.285V24.1865C64.4576 24.3946 64.4693 24.5783 64.4926 24.7375C64.5181 24.8968 64.5553 25.0348 64.6041 25.1516C64.6529 25.2663 64.7124 25.3608 64.7825 25.4351C64.8526 25.5094 64.9333 25.5647 65.0246 25.6008C65.118 25.6347 65.221 25.6517 65.3335 25.6517C65.4779 25.6517 65.6043 25.6241 65.7126 25.5689C65.8209 25.5137 65.9111 25.4277 65.9833 25.3109C66.0577 25.192 66.1129 25.0401 66.149 24.8554C66.1851 24.6685 66.2031 24.4456 66.2031 24.1865Z" fill="black"/>
<path d="M68.1525 25.3714V25.846C68.1525 26.0393 68.1037 26.2431 68.006 26.4576C67.9083 26.6742 67.7713 26.8547 67.5951 26.9991L67.2606 26.7666C67.3286 26.6731 67.3859 26.5776 67.4326 26.4799C67.4794 26.3843 67.5144 26.2845 67.5378 26.1805C67.5632 26.0785 67.576 25.9702 67.576 25.8556V25.3714H68.1525Z" fill="black"/>
<path d="M71.392 21.4344V26.0722H70.516V21.4344H71.392ZM73.2617 23.4379V24.1291H71.1626V23.4379H73.2617ZM73.507 21.4344V22.1256H71.1626V21.4344H73.507Z" fill="black"/>
<path d="M75.8291 25.3396V23.7501C75.8291 23.6333 75.8089 23.5324 75.7686 23.4475C75.7282 23.3625 75.6666 23.2967 75.5838 23.25C75.501 23.2033 75.3959 23.1799 75.2685 23.1799C75.1559 23.1799 75.0572 23.199 74.9722 23.2373C74.8894 23.2755 74.8257 23.3296 74.7811 23.3997C74.7365 23.4677 74.7142 23.5462 74.7142 23.6354H73.8701C73.8701 23.4931 73.9041 23.3583 73.9721 23.2309C74.04 23.1014 74.1366 22.9867 74.2619 22.8869C74.3893 22.7849 74.5412 22.7053 74.7174 22.648C74.8958 22.5906 75.0954 22.562 75.3163 22.562C75.5774 22.562 75.81 22.6066 76.0138 22.6958C76.2198 22.7828 76.3812 22.9145 76.498 23.0907C76.6169 23.267 76.6764 23.4889 76.6764 23.7565V25.2599C76.6764 25.4319 76.687 25.5795 76.7082 25.7027C76.7316 25.8237 76.7656 25.9288 76.8102 26.018V26.0722H75.9533C75.913 25.9851 75.8822 25.8747 75.8609 25.7409C75.8397 25.605 75.8291 25.4712 75.8291 25.3396ZM75.9469 23.9731L75.9533 24.4732H75.4214C75.2897 24.4732 75.174 24.487 75.0742 24.5146C74.9744 24.54 74.8926 24.5783 74.8289 24.6292C74.7652 24.6781 74.7174 24.7375 74.6856 24.8076C74.6537 24.8756 74.6378 24.9531 74.6378 25.0401C74.6378 25.1251 74.6569 25.2015 74.6951 25.2695C74.7355 25.3374 74.7928 25.3916 74.8671 25.4319C74.9436 25.4702 75.0328 25.4893 75.1347 25.4893C75.2833 25.4893 75.4129 25.4595 75.5233 25.4001C75.6337 25.3385 75.7197 25.2642 75.7813 25.1771C75.8429 25.09 75.8758 25.0072 75.8801 24.9287L76.1221 25.2918C76.0924 25.3788 76.0478 25.4712 75.9883 25.5689C75.9289 25.6666 75.8524 25.7579 75.759 25.8428C75.6656 25.9278 75.553 25.9979 75.4214 26.0531C75.2897 26.1083 75.1368 26.1359 74.9627 26.1359C74.7397 26.1359 74.5401 26.0913 74.3639 26.0021C74.1876 25.9129 74.0485 25.7908 73.9466 25.6358C73.8447 25.4808 73.7937 25.3045 73.7937 25.107C73.7937 24.9244 73.8277 24.763 73.8956 24.6229C73.9636 24.4827 74.0644 24.3649 74.1982 24.2693C74.332 24.1716 74.4976 24.0984 74.6951 24.0495C74.8947 23.9985 75.123 23.9731 75.38 23.9731H75.9469Z" fill="black"/>
<path d="M78.0938 22.6257L78.7086 23.7214L79.3329 22.6257H80.2471L79.2342 24.3139L80.2885 26.0722H79.3743L78.715 24.9223L78.0524 26.0722H77.1382L78.1894 24.3139L77.1828 22.6257H78.0938Z" fill="black"/>
<path d="M80.7536 25.6613C80.7536 25.5339 80.7971 25.4266 80.8842 25.3396C80.9712 25.2525 81.0891 25.209 81.2377 25.209C81.3864 25.209 81.5042 25.2525 81.5913 25.3396C81.6784 25.4266 81.7219 25.5339 81.7219 25.6613C81.7219 25.7866 81.6784 25.8927 81.5913 25.9798C81.5042 26.0647 81.3864 26.1072 81.2377 26.1072C81.0891 26.1072 80.9712 26.0647 80.8842 25.9798C80.7971 25.8927 80.7536 25.7866 80.7536 25.6613ZM80.7567 22.9888C80.7567 22.8614 80.8003 22.7542 80.8873 22.6671C80.9744 22.58 81.0923 22.5365 81.2409 22.5365C81.3896 22.5365 81.5074 22.58 81.5945 22.6671C81.6815 22.7542 81.7251 22.8614 81.7251 22.9888C81.7251 23.1141 81.6815 23.2203 81.5945 23.3073C81.5074 23.3923 81.3896 23.4347 81.2409 23.4347C81.0923 23.4347 80.9744 23.3923 80.8873 23.3073C80.8003 23.2203 80.7567 23.1141 80.7567 22.9888Z" fill="black"/>
<path d="M87.8568 21.4344V26.0722H87.2388L84.904 22.4951V26.0722H84.2892V21.4344H84.904L87.2484 25.021V21.4344H87.8568Z" fill="black"/>
<path d="M90.9083 21.4344L88.9748 26.4703H88.4683L90.405 21.4344H90.9083Z" fill="black"/>
<path d="M93.3578 21.8453L91.8225 26.0722H91.195L92.9628 21.4344H93.3673L93.3578 21.8453ZM94.6446 26.0722L93.1061 21.8453L93.0966 21.4344H93.5011L95.2753 26.0722H94.6446ZM94.565 24.3553V24.8586H91.9594V24.3553H94.565Z" fill="black"/>
</svg>
